<svg xmlns="http://www.w3.org/2000/svg" xmlns:xlink="http://www.w3.org/1999/xlink" width="1000" zoomAndPan="magnify" viewBox="0 0 750 749.999995" height="1000" preserveAspectRatio="xMidYMid meet" version="1.0"><defs><g/><clipPath id="f200f4b81c"><path d="M 40.847656 40.847656 L 709.152344 40.847656 L 709.152344 709.152344 L 40.847656 709.152344 Z M 40.847656 40.847656 " clip-rule="nonzero"/></clipPath><clipPath id="c9b31f3851"><path d="M 375 40.847656 C 190.453125 40.847656 40.847656 190.453125 40.847656 375 C 40.847656 559.546875 190.453125 709.152344 375 709.152344 C 559.546875 709.152344 709.152344 559.546875 709.152344 375 C 709.152344 190.453125 559.546875 40.847656 375 40.847656 Z M 375 40.847656 " clip-rule="nonzero"/></clipPath><clipPath id="07f0251b90"><path d="M 0.847656 0.847656 L 669.152344 0.847656 L 669.152344 669.152344 L 0.847656 669.152344 Z M 0.847656 0.847656 " clip-rule="nonzero"/></clipPath><clipPath id="598e594b22"><path d="M 335 0.847656 C 150.453125 0.847656 0.847656 150.453125 0.847656 335 C 0.847656 519.546875 150.453125 669.152344 335 669.152344 C 519.546875 669.152344 669.152344 519.546875 669.152344 335 C 669.152344 150.453125 519.546875 0.847656 335 0.847656 Z M 335 0.847656 " clip-rule="nonzero"/></clipPath><clipPath id="3427135a89"><rect x="0" width="670" y="0" height="670"/></clipPath><clipPath id="abd6997955"><rect x="0" width="369" y="0" height="615"/></clipPath></defs><g clip-path="url(#f200f4b81c)"><g clip-path="url(#c9b31f3851)"><g transform="matrix(1, 0, 0, 1, 40, 40)"><g clip-path="url(#3427135a89)"><g clip-path="url(#07f0251b90)"><g clip-path="url(#598e594b22)"><path fill="#f5a623" d="M 0.847656 0.847656 L 669.152344 0.847656 L 669.152344 669.152344 L 0.847656 669.152344 Z M 0.847656 0.847656 " fill-opacity="1" fill-rule="nonzero"/></g></g></g></g></g></g><g transform="matrix(1, 0, 0, 1, 192, 12)"><g clip-path="url(#abd6997955)"><g fill="#0f1623" fill-opacity="1"><g transform="translate(0.0978156, 514.000845)"><g><path d="M 36.28125 -250.921875 L 136.734375 -250.921875 C 135.804688 -245.648438 134.875 -238.867188 133.9375 -230.578125 C 133.007812 -222.285156 132.546875 -213.71875 132.546875 -204.875 C 137.828125 -212.78125 144.457031 -219.953125 152.4375 -226.390625 C 160.414062 -232.828125 169.210938 -238.332031 178.828125 -242.90625 C 188.441406 -247.476562 198.632812 -251.003906 209.40625 -253.484375 C 220.1875 -255.960938 231.082031 -257.203125 242.09375 -257.203125 C 254.175781 -257.203125 265.644531 -255.378906 276.5 -251.734375 C 287.351562 -248.085938 296.890625 -242.3125 305.109375 -234.40625 C 313.328125 -226.5 319.835938 -216.226562 324.640625 -203.59375 C 329.441406 -190.957031 331.84375 -175.648438 331.84375 -157.671875 L 331.84375 0 L 231.390625 0 L 231.390625 -143.015625 C 231.390625 -152.628906 230.378906 -160.613281 228.359375 -166.96875 C 226.347656 -173.320312 223.554688 -178.359375 219.984375 -182.078125 C 216.421875 -185.804688 212.195312 -188.441406 207.3125 -189.984375 C 202.4375 -191.535156 197.128906 -192.3125 191.390625 -192.3125 C 185.191406 -192.3125 179.066406 -191.265625 173.015625 -189.171875 C 166.972656 -187.085938 161.46875 -184.257812 156.5 -180.6875 C 151.539062 -177.125 147.28125 -172.9375 143.71875 -168.125 C 140.15625 -163.320312 137.828125 -158.207031 136.734375 -152.78125 L 136.734375 0 L 36.28125 0 Z M 36.28125 -250.921875 "/></g></g></g></g></g></svg>